<svg width="18" height="18" viewBox="0 0 18 18" fill="none" xmlns="http://www.w3.org/2000/svg">
<path d="M1.75 5C1.75 2.79086 3.54086 1 5.75 1H13.75C15.9591 1 17.75 2.79086 17.75 5V13C17.75 15.2091 15.9591 17 13.75 17H5.75C3.54086 17 1.75 15.2091 1.75 13V5Z" fill="white"/>
<path d="M2.57143 0C1.15313 0 0 1.15313 0 2.57143V15.4286C0 16.8469 1.15313 18 2.57143 18H15.4286C16.8469 18 18 16.8469 18 15.4286V2.57143C18 1.15313 16.8469 0 15.4286 0H2.57143ZM13.5402 7.11161L8.39732 12.2545C8.01964 12.6321 7.40893 12.6321 7.03527 12.2545L4.46384 9.68304C4.08616 9.30536 4.08616 8.69464 4.46384 8.32098C4.84152 7.94732 5.45223 7.9433 5.82589 8.32098L7.71429 10.2094L12.1741 5.74554C12.5518 5.36786 13.1625 5.36786 13.5362 5.74554C13.9098 6.12321 13.9138 6.73393 13.5362 7.10759L13.5402 7.11161Z" fill="#5B5B5F"/>
</svg>
