<svg width="24" height="20" viewBox="0 0 24 20" fill="none" xmlns="http://www.w3.org/2000/svg">
<g filter="url(#filter0_d_104_1123)">
<path d="M17.4286 1.28571C18.1397 1.28571 18.7143 1.86027 18.7143 2.57143V15.4286C18.7143 16.1397 18.1397 16.7143 17.4286 16.7143H4.57143C3.86027 16.7143 3.28571 16.1397 3.28571 15.4286V2.57143C3.28571 1.86027 3.86027 1.28571 4.57143 1.28571H17.4286ZM4.57143 0C3.15313 0 2 1.15313 2 2.57143V15.4286C2 16.8469 3.15313 18 4.57143 18H17.4286C18.8469 18 20 16.8469 20 15.4286V2.57143C20 1.15313 18.8469 0 17.4286 0H4.57143Z" fill="#CACAD3"/>
</g>
<defs>
<filter id="filter0_d_104_1123" x="-2" y="0" width="26" height="26" filterUnits="userSpaceOnUse" color-interpolation-filters="sRGB">
<feFlood flood-opacity="0" result="BackgroundImageFix"/>
<feColorMatrix in="SourceAlpha" type="matrix" values="0 0 0 0 0 0 0 0 0 0 0 0 0 0 0 0 0 0 127 0" result="hardAlpha"/>
<feOffset dy="4"/>
<feGaussianBlur stdDeviation="2"/>
<feComposite in2="hardAlpha" operator="out"/>
<feColorMatrix type="matrix" values="0 0 0 0 0 0 0 0 0 0 0 0 0 0 0 0 0 0 0.25 0"/>
<feBlend mode="normal" in2="BackgroundImageFix" result="effect1_dropShadow_104_1123"/>
<feBlend mode="normal" in="SourceGraphic" in2="effect1_dropShadow_104_1123" result="shape"/>
</filter>
</defs>
</svg>
