<svg width="16" height="16" viewBox="0 0 16 16" fill="none" xmlns="http://www.w3.org/2000/svg">
<path d="M3 10.2826V5.71739C3 5.39452 3.11706 5.08487 3.32544 4.85657C3.53381 4.62826 3.81643 4.5 4.11111 4.5H8.83333C9.12802 4.5 9.41063 4.62826 9.61901 4.85657C9.82738 5.08487 9.94444 5.39452 9.94444 5.71739V10.2826C9.94444 10.6055 9.82738 10.9151 9.61901 11.1434C9.41063 11.3717 9.12802 11.5 8.83333 11.5H4.11111C3.81643 11.5 3.53381 11.3717 3.32544 11.1434C3.11706 10.9151 3 10.6055 3 10.2826ZM12.5378 4.95104L10.3156 7.11983C10.2863 7.14832 10.2628 7.18328 10.2467 7.22241C10.2306 7.26154 10.2223 7.30395 10.2222 7.34687V8.42913C10.2223 8.47205 10.2306 8.51446 10.2467 8.55359C10.2628 8.59272 10.2863 8.62768 10.3156 8.65617L12.5378 10.825C12.5778 10.8639 12.6273 10.8894 12.6802 10.8982C12.7331 10.9071 12.7873 10.899 12.8361 10.875C12.8849 10.8509 12.9264 10.8119 12.9555 10.7627C12.9846 10.7134 13 10.656 13 10.5973V5.1787C13 5.12003 12.9846 5.06261 12.9555 5.01335C12.9264 4.96408 12.8849 4.92508 12.8361 4.90102C12.7873 4.87697 12.7331 4.86889 12.6802 4.87777C12.6273 4.88664 12.5778 4.91209 12.5378 4.95104Z" stroke="#5B5B5F" stroke-linecap="round" stroke-linejoin="round"/>
</svg>
