<svg width="20" height="20" viewBox="0 0 20 20" fill="none" xmlns="http://www.w3.org/2000/svg">
<path d="M9.51923 8.97596H10.0625V13.8654H10.6058M17.125 10.0625C17.125 11.9356 16.3809 13.732 15.0564 15.0564C13.732 16.3809 11.9356 17.125 10.0625 17.125C8.18941 17.125 6.39303 16.3809 5.06856 15.0564C3.74408 13.732 3 11.9356 3 10.0625C3 8.18941 3.74408 6.39303 5.06856 5.06856C6.39303 3.74408 8.18941 3 10.0625 3C11.9356 3 13.732 3.74408 15.0564 5.06856C16.3809 6.39303 17.125 8.18941 17.125 10.0625Z" stroke="#CACAD3" stroke-linecap="round" stroke-linejoin="round"/>
<mask id="mask0_104_1198" style="mask-type:luminance" maskUnits="userSpaceOnUse" x="9" y="5" width="2" height="3">
<path d="M10.062 6.21582C10.1453 6.21582 10.2257 6.24884 10.2847 6.30762C10.3436 6.36657 10.3773 6.44692 10.3774 6.53027C10.3774 6.61379 10.3437 6.69387 10.2847 6.75293C10.2256 6.81199 10.1455 6.8457 10.062 6.8457C9.97866 6.84558 9.8983 6.81188 9.83936 6.75293C9.78058 6.69392 9.74756 6.61358 9.74756 6.53027C9.74768 6.44692 9.78041 6.36657 9.83936 6.30762C9.8983 6.24867 9.97866 6.21594 10.062 6.21582Z" fill="white" stroke="#CACAD3"/>
</mask>
<g mask="url(#mask0_104_1198)">
<path d="M10.8774 6.5317C10.8774 6.74783 10.7915 6.9551 10.6387 7.10792C10.4859 7.26075 10.2786 7.3466 10.0625 7.3466C9.84634 7.3466 9.63906 7.26075 9.48624 7.10792C9.33341 6.9551 9.24756 6.74783 9.24756 6.5317C9.24756 6.31557 9.33341 6.1083 9.48624 5.95548C9.63906 5.80265 9.84634 5.7168 10.0625 5.7168C10.2786 5.7168 10.4859 5.80265 10.6387 5.95548C10.7915 6.1083 10.8774 6.31557 10.8774 6.5317Z" fill="#CACAD3" stroke="#CACAD3"/>
</g>
</svg>
