<svg width="56" height="56" viewBox="0 0 56 56" fill="none" xmlns="http://www.w3.org/2000/svg">
<path fill-rule="evenodd" clip-rule="evenodd" d="M18.6667 11.666C17.429 11.666 16.242 12.1577 15.3668 13.0329C14.4917 13.908 14 15.095 14 16.3327V39.666C14 40.9037 14.4917 42.0907 15.3668 42.9659C16.242 43.841 17.429 44.3327 18.6667 44.3327H21C22.2377 44.3327 23.4247 43.841 24.2998 42.9659C25.175 42.0907 25.6667 40.9037 25.6667 39.666V16.3327C25.6667 15.095 25.175 13.908 24.2998 13.0329C23.4247 12.1577 22.2377 11.666 21 11.666H18.6667ZM35 11.666C33.7623 11.666 32.5753 12.1577 31.7002 13.0329C30.825 13.908 30.3333 15.095 30.3333 16.3327V39.666C30.3333 40.9037 30.825 42.0907 31.7002 42.9659C32.5753 43.841 33.7623 44.3327 35 44.3327H37.3333C38.571 44.3327 39.758 43.841 40.6332 42.9659C41.5083 42.0907 42 40.9037 42 39.666V16.3327C42 15.095 41.5083 13.908 40.6332 13.0329C39.758 12.1577 38.571 11.666 37.3333 11.666H35Z" fill="white"/>
</svg>
