<svg width="64" height="64" viewBox="0 0 64 64" fill="none" xmlns="http://www.w3.org/2000/svg">
<g filter="url(#filter0_i_200_3105)">
<circle cx="32" cy="32" r="32" fill="white"/>
</g>
<g clip-path="url(#clip0_200_3105)">
<g filter="url(#filter1_f_200_3105)">
<path fill-rule="evenodd" clip-rule="evenodd" d="M21.7144 28.0012C21.7139 27.5866 21.8638 27.1859 22.1361 26.8733C22.4085 26.5607 22.7849 26.3574 23.1957 26.3011C23.6064 26.2447 24.0237 26.3391 24.3701 26.5668C24.7166 26.7945 24.9688 27.1401 25.0801 27.5395C27.3052 34.9704 37.8321 34.9715 40.0618 27.5452C40.1244 27.328 40.2294 27.1254 40.3707 26.9489C40.512 26.7724 40.6868 26.6257 40.885 26.517C41.0833 26.4084 41.301 26.34 41.5258 26.3159C41.7505 26.2917 41.9778 26.3123 42.1946 26.3763C42.4114 26.4404 42.6134 26.5467 42.7889 26.6891C42.9645 26.8315 43.1101 27.0072 43.2175 27.2062C43.3249 27.4051 43.3918 27.6233 43.4145 27.8482C43.4372 28.0731 43.4152 28.3003 43.3498 28.5166C42.9593 29.851 42.3309 31.1039 41.4949 32.2149L42.5921 33.3121C42.7557 33.4703 42.8862 33.6595 42.976 33.8687C43.0657 34.0779 43.1129 34.3029 43.1148 34.5305C43.1166 34.7581 43.0732 34.9838 42.9869 35.1945C42.9006 35.4051 42.7732 35.5964 42.6122 35.7573C42.4511 35.9182 42.2597 36.0454 42.0489 36.1315C41.8382 36.2176 41.6125 36.2609 41.3848 36.2588C41.1572 36.2567 40.9323 36.2093 40.7232 36.1194C40.5141 36.0294 40.325 35.8987 40.1669 35.7349L39.0126 34.5806C38.4127 34.9916 37.7733 35.3419 37.1041 35.6264L37.3818 36.6618C37.4871 37.0967 37.4182 37.5556 37.1898 37.9404C36.9614 38.3252 36.5915 38.6055 36.1592 38.7213C35.727 38.837 35.2666 38.7792 34.8763 38.5601C34.4861 38.341 34.1971 37.978 34.0709 37.5486L33.7841 36.4801C32.9784 36.5635 32.1646 36.5635 31.3589 36.4801L31.0732 37.5486C30.9556 37.9878 30.6683 38.3623 30.2746 38.5897C29.8809 38.8171 29.413 38.8788 28.9738 38.7612C28.5346 38.6436 28.1601 38.3563 27.9327 37.9626C27.7053 37.5689 27.6436 37.101 27.7612 36.6618L28.0378 35.6252C27.369 35.341 26.73 34.9911 26.1304 34.5806L24.9761 35.7349C24.818 35.8987 24.6289 36.0294 24.4198 36.1194C24.2107 36.2093 23.9858 36.2567 23.7582 36.2588C23.5305 36.2609 23.3048 36.2176 23.0941 36.1315C22.8833 36.0454 22.6919 35.9182 22.5308 35.7573C22.3698 35.5964 22.2424 35.4051 22.1561 35.1945C22.0698 34.9838 22.0264 34.7581 22.0282 34.5305C22.0301 34.3029 22.0773 34.0779 22.167 33.8687C22.2568 33.6595 22.3873 33.4703 22.5509 33.3121L23.6481 32.2149C22.814 31.1057 22.1869 29.8553 21.7966 28.5235C21.7424 28.3547 21.7146 28.1785 21.7144 28.0012Z" fill="#74C577"/>
</g>
<path fill-rule="evenodd" clip-rule="evenodd" d="M21.7144 28.0012C21.7139 27.5866 21.8638 27.1859 22.1361 26.8733C22.4085 26.5607 22.7849 26.3574 23.1957 26.3011C23.6064 26.2447 24.0237 26.3391 24.3701 26.5668C24.7166 26.7945 24.9688 27.1401 25.0801 27.5395C27.3052 34.9704 37.8321 34.9715 40.0618 27.5452C40.1244 27.328 40.2294 27.1254 40.3707 26.9489C40.512 26.7724 40.6868 26.6257 40.885 26.517C41.0833 26.4084 41.301 26.34 41.5258 26.3159C41.7505 26.2917 41.9778 26.3123 42.1946 26.3763C42.4114 26.4404 42.6134 26.5467 42.7889 26.6891C42.9645 26.8315 43.1101 27.0072 43.2175 27.2062C43.3249 27.4051 43.3918 27.6233 43.4145 27.8482C43.4372 28.0731 43.4152 28.3003 43.3498 28.5166C42.9593 29.851 42.3309 31.1039 41.4949 32.2149L42.5921 33.3121C42.7557 33.4703 42.8862 33.6595 42.976 33.8687C43.0657 34.0779 43.1129 34.3029 43.1148 34.5305C43.1166 34.7581 43.0732 34.9838 42.9869 35.1945C42.9006 35.4051 42.7732 35.5964 42.6122 35.7573C42.4511 35.9182 42.2597 36.0454 42.0489 36.1315C41.8382 36.2176 41.6125 36.2609 41.3848 36.2588C41.1572 36.2567 40.9323 36.2093 40.7232 36.1194C40.5141 36.0294 40.325 35.8987 40.1669 35.7349L39.0126 34.5806C38.4127 34.9916 37.7733 35.3419 37.1041 35.6264L37.3818 36.6618C37.4871 37.0967 37.4182 37.5556 37.1898 37.9404C36.9614 38.3252 36.5915 38.6055 36.1592 38.7213C35.727 38.837 35.2666 38.7792 34.8763 38.5601C34.4861 38.341 34.1971 37.978 34.0709 37.5486L33.7841 36.4801C32.9784 36.5635 32.1646 36.5635 31.3589 36.4801L31.0732 37.5486C30.9556 37.9878 30.6683 38.3623 30.2746 38.5897C29.8809 38.8171 29.413 38.8788 28.9738 38.7612C28.5346 38.6436 28.1601 38.3563 27.9327 37.9626C27.7053 37.5689 27.6436 37.101 27.7612 36.6618L28.0378 35.6252C27.369 35.341 26.73 34.9911 26.1304 34.5806L24.9761 35.7349C24.818 35.8987 24.6289 36.0294 24.4198 36.1194C24.2107 36.2093 23.9858 36.2567 23.7582 36.2588C23.5305 36.2609 23.3048 36.2176 23.0941 36.1315C22.8833 36.0454 22.6919 35.9182 22.5308 35.7573C22.3698 35.5964 22.2424 35.4051 22.1561 35.1945C22.0698 34.9838 22.0264 34.7581 22.0282 34.5305C22.0301 34.3029 22.0773 34.0779 22.167 33.8687C22.2568 33.6595 22.3873 33.4703 22.5509 33.3121L23.6481 32.2149C22.814 31.1057 22.1869 29.8553 21.7966 28.5235C21.7424 28.3547 21.7146 28.1785 21.7144 28.0012Z" fill="#74C577"/>
</g>
<g filter="url(#filter2_f_200_3105)">
<circle cx="32.0001" cy="32.0006" r="24.7857" stroke="#74C577" stroke-width="3"/>
</g>
<circle cx="32.0001" cy="32.0006" r="24.7857" stroke="#74C577" stroke-width="3"/>
<defs>
<filter id="filter0_i_200_3105" x="0" y="0" width="64" height="68.5714" filterUnits="userSpaceOnUse" color-interpolation-filters="sRGB">
<feFlood flood-opacity="0" result="BackgroundImageFix"/>
<feBlend mode="normal" in="SourceGraphic" in2="BackgroundImageFix" result="shape"/>
<feColorMatrix in="SourceAlpha" type="matrix" values="0 0 0 0 0 0 0 0 0 0 0 0 0 0 0 0 0 0 127 0" result="hardAlpha"/>
<feOffset dy="4.57143"/>
<feGaussianBlur stdDeviation="5.71429"/>
<feComposite in2="hardAlpha" operator="arithmetic" k2="-1" k3="1"/>
<feColorMatrix type="matrix" values="0 0 0 0 0.570744 0 0 0 0 0.570744 0 0 0 0 0.570744 0 0 0 0.1 0"/>
<feBlend mode="normal" in2="shape" result="effect1_innerShadow_200_3105"/>
</filter>
<filter id="filter1_f_200_3105" x="14.8572" y="19.428" width="35.423" height="26.2485" filterUnits="userSpaceOnUse" color-interpolation-filters="sRGB">
<feFlood flood-opacity="0" result="BackgroundImageFix"/>
<feBlend mode="normal" in="SourceGraphic" in2="BackgroundImageFix" result="shape"/>
<feGaussianBlur stdDeviation="3.42857" result="effect1_foregroundBlur_200_3105"/>
</filter>
<filter id="filter2_f_200_3105" x="6.91414e-05" y="0.000557423" width="64.0001" height="63.9999" filterUnits="userSpaceOnUse" color-interpolation-filters="sRGB">
<feFlood flood-opacity="0" result="BackgroundImageFix"/>
<feBlend mode="normal" in="SourceGraphic" in2="BackgroundImageFix" result="shape"/>
<feGaussianBlur stdDeviation="2.85714" result="effect1_foregroundBlur_200_3105"/>
</filter>
<clipPath id="clip0_200_3105">
<rect width="36.5714" height="36.5714" fill="white" transform="translate(13.7144 13.7148)"/>
</clipPath>
</defs>
</svg>
